HIERARCHY
ROOT Hips
{
  OFFSET 53.1525 84.2792 6.66421
  CHANNELS 6 Xposition Yposition Zposition Zrotation Xrotation Yrotation
  JOINT spine
  {
    OFFSET 0 5.95438 0.342407
    CHANNELS 3 Zrotation Xrotation Yrotation
    JOINT spine1
    {
      OFFSET 0 8.85602 0
      CHANNELS 3 Zrotation Xrotation Yrotation
      JOINT spine2
      {
        OFFSET 0 8.48567 0
        CHANNELS 3 Zrotation Xrotation Yrotation
        JOINT Neck
        {
          OFFSET 0 21.7863 1.0387
          CHANNELS 3 Zrotation Xrotation Yrotation
          JOINT Head
          {
            OFFSET 0 6.5822 0
            CHANNELS 3 Zrotation Xrotation Yrotation
            End Site
            {
              OFFSET 0 15.9326 -5.25436
            }
          }
        }
        JOINT RightShoulder
        {
          OFFSET -3.57307 9.16386 -0.497525
          CHANNELS 3 Zrotation Xrotation Yrotation
          JOINT RightArm
          {
            OFFSET 0 12.0192 0
            CHANNELS 3 Zrotation Xrotation Yrotation
            JOINT RightArmRoll
            {
              OFFSET 0 6.06755 0
              CHANNELS 3 Zrotation Xrotation Yrotation
              JOINT RightForeArm
              {
                OFFSET 0 17.6726 0
                CHANNELS 3 Zrotation Xrotation Yrotation
                JOINT RightForeArmRoll
                {
                  OFFSET 0 6.80872 0
                  CHANNELS 3 Zrotation Xrotation Yrotation
                  JOINT RightHand
                  {
                    OFFSET 0 13.6636 0
                    CHANNELS 3 Zrotation Xrotation Yrotation
                    End Site
                    {
                      OFFSET 0 0 0
                    }
                  }
                }
              }
            }
          }
        }
        JOINT LeftShoulder
        {
          OFFSET 3.57307 9.16386 -0.497525
          CHANNELS 3 Zrotation Xrotation Yrotation
          JOINT LeftArm
          {
            OFFSET 0 12.0192 0
            CHANNELS 3 Zrotation Xrotation Yrotation
            JOINT LeftArmRoll
            {
              OFFSET 0 6.06755 0
              CHANNELS 3 Zrotation Xrotation Yrotation
              JOINT LeftForeArm
              {
                OFFSET 0 17.6726 0
                CHANNELS 3 Zrotation Xrotation Yrotation
                JOINT LeftForeArmRoll
                {
                  OFFSET 0 6.80872 0
                  CHANNELS 3 Zrotation Xrotation Yrotation
                  JOINT LeftHand
                  {
                    OFFSET 0 13.6636 0
                    CHANNELS 3 Zrotation Xrotation Yrotation
                    End Site
                    {
                      OFFSET 0 0 0
                    }
                  }
                }
              }
            }
          }
        }
      }
    }
  }
  JOINT RightUpLeg
  {
    OFFSET -5.27774 -0.967797 -0.811858
    CHANNELS 3 Zrotation Xrotation Yrotation
    JOINT RightUpLegRoll
    {
      OFFSET 0 16.0214 0
      CHANNELS 3 Zrotation Xrotation Yrotation
      JOINT RightLeg
      {
        OFFSET 0 -19.8401 0
        CHANNELS 3 Zrotation Xrotation Yrotation
        JOINT RightLegRoll
        {
          OFFSET 0 19.905 0
          CHANNELS 3 Zrotation Xrotation Yrotation
          JOINT RightFoot
          {
            OFFSET 0 16.5675 0
            CHANNELS 3 Zrotation Xrotation Yrotation
            JOINT RightToeBase
            {
              OFFSET 0 13.8496 0
              CHANNELS 3 Zrotation Xrotation Yrotation
              End Site
              {
                OFFSET 0.00587034 6.70728 -0.773116
              }
            }
          }
        }
      }
    }
  }
  JOINT LeftUpLeg
  {
    OFFSET 5.27774 -0.967797 -0.811858
    CHANNELS 3 Zrotation Xrotation Yrotation
    JOINT LeftUpLegRoll
    {
      OFFSET 0 16.0215 0
      CHANNELS 3 Zrotation Xrotation Yrotation
      JOINT LeftLeg
      {
        OFFSET 0 19.84 0
        CHANNELS 3 Zrotation Xrotation Yrotation
        JOINT LeftLegRoll
        {
          OFFSET 0 20.089 0
          CHANNELS 3 Zrotation Xrotation Yrotation
          JOINT LeftFoot
          {
            OFFSET 0 16.3835 0
            CHANNELS 3 Zrotation Xrotation Yrotation
            JOINT LeftToeBase
            {
              OFFSET 0 13.8496 0
              CHANNELS 3 Zrotation Xrotation Yrotation
              End Site
              {
                OFFSET -0.0263083 6.70727 -0.773117
              }
            }
          }
        }
      }
    }
  }
}
MOTION
Frames: 10
Frame Time: 0.00208333
53.4606 84.3706 5.63449 -2.02606 -3.72086 -0.764415 0.556886 -2.05267 0.133583 1.10784 -0.102313 0.216865 1.10554 1.54258 0.198524 -8.12155 16.1224 2.68043 16.3359 -8.70109 2.33305 11.6953 -10.1104 -6.13776 55.8033 28.2977 36.9848 3.48643e-007 2.68556e-006 -1.76774e-006 -5.00384 51.254 -0.00779916 1.14378e-006 -9.32379e-007 -3 8.03007 -4.95139 0.697619 -69.9563 -9.69904 6.1014 -109.482 16.74 8.8968 -3.28173e-006 3.04554e-006 5.82133e-007 3.6408 -0.025804 1.99248 -2.88516e-006 -1.92231e-006 3.0116 -8.03006 -4.95139 -0.697628 -179.171 0.254284 2.32658 180 7.01551e-015 178.94 176.994 6.62196 179.962 -5.3233e-006 3.12947e-006 0.081645 -18.8167 68.2272 19.7194 8.1365 25.2327 -3.48774 -176.995 1.67133 -1.57055 4.54188e-006 -4.6773e-006 -1.05923 -3.01014 -10.9807 -0.0176221 -1.53662e-007 5.52734e-006 -0.179555 20.2683 69.9377 -21.2847 -8.13649 25.2327 3.48774 
53.4652 84.3695 5.64231 -2.03948 -3.71641 -0.788593 0.55872 -2.05358 0.133486 1.11253 -0.104079 0.216968 1.11023 1.54081 0.198551 -8.13996 16.1375 2.68628 16.3651 -8.69412 2.33489 11.8164 -10.1253 -6.16087 56.2412 28.0073 36.6301 3.48643e-007 2.68556e-006 -1.76774e-006 -4.99304 51.1004 -0.0195549 1.14378e-006 -9.32379e-007 -3 8.03007 -4.95139 0.697619 -69.9519 -9.69354 6.0986 -109.488 16.7583 8.90869 -3.28173e-006 3.04554e-006 5.82133e-007 3.6408 -0.025804 1.99248 -2.88516e-006 -1.92231e-006 3.0116 -8.03006 -4.95139 -0.697628 -179.16 0.188677 2.32957 180 7.01551e-015 178.94 176.974 6.46066 179.963 -5.3233e-006 3.12947e-006 0.0786152 -18.7589 68.1564 19.6585 8.1365 25.2327 -3.48774 -176.986 1.67586 -1.57568 4.54188e-006 -4.6773e-006 -1.05928 -3.01038 -10.992 -0.0174695 -1.53662e-007 5.52734e-006 -0.179808 20.2741 69.9437 -21.2909 -8.13649 25.2327 3.48774 
53.475 84.3687 5.64467 -2.05332 -3.71206 -0.812508 0.560594 -2.05445 0.133392 1.11736 -0.105728 0.217067 1.11506 1.53916 0.198567 -8.16 16.1512 2.69205 16.3958 -8.68677 2.33636 11.9394 -10.1411 -6.18515 56.6772 27.7185 36.2762 3.48643e-007 2.68556e-006 -1.76774e-006 -4.98201 50.9422 -0.0315734 1.14378e-006 -9.32379e-007 -3 8.03007 -4.95139 0.697619 -69.9474 -9.68832 6.09594 -109.494 16.7766 8.92097 -3.28173e-006 3.04554e-006 5.82133e-007 3.6408 -0.025804 1.99248 -2.88516e-006 -1.92231e-006 3.0116 -8.03006 -4.95139 -0.697628 -179.148 0.122608 2.33205 180 7.01551e-015 178.94 176.955 6.29878 179.965 -5.3233e-006 3.12947e-006 0.0755822 -18.7014 68.0853 19.5978 8.1365 25.2327 -3.48774 -176.977 1.68052 -1.58136 4.54188e-006 -4.6773e-006 -1.05934 -3.01076 -11.0037 -0.0173328 -1.53662e-007 5.52734e-006 -0.180067 20.2801 69.95 -21.2974 -8.13649 25.2327 3.48774 
53.4821 84.3674 5.64575 -2.06747 -3.70794 -0.836034 0.562492 -2.05523 0.133301 1.12225 -0.107202 0.217146 1.11995 1.53769 0.198556 -8.18133 16.1637 2.69774 16.4277 -8.67948 2.33753 12.0652 -10.1577 -6.21045 57.1107 27.4315 35.9234 3.48643e-007 2.68556e-006 -1.76774e-006 -4.9707 50.7787 -0.0438962 1.14378e-006 -9.32379e-007 -3 8.03007 -4.95139 0.697619 -69.9429 -9.68328 6.09337 -109.5 16.7952 8.93343 -3.28173e-006 3.04554e-006 5.82133e-007 3.6408 -0.025804 1.99248 -2.88516e-006 -1.92231e-006 3.0116 -8.03006 -4.95139 -0.697628 -179.136 0.0572683 2.334 180 7.01551e-015 178.94 176.936 6.13945 179.966 -5.3233e-006 3.12947e-006 0.0726033 -18.6452 68.0154 19.5385 8.1365 25.2327 -3.48774 -176.966 1.68515 -1.58746 4.54188e-006 -4.6773e-006 -1.05939 -3.01125 -11.0159 -0.0172102 -1.53662e-007 5.52734e-006 -0.180334 20.2864 69.9564 -21.3041 -8.13649 25.2327 3.48774 
53.4622 84.3607 5.66567 -2.0818 -3.70418 -0.859042 0.564394 -2.0559 0.133209 1.12714 -0.108449 0.217188 1.12484 1.53644 0.198502 -8.20364 16.1754 2.70332 16.4601 -8.67266 2.33845 12.1943 -10.175 -6.23662 57.5412 27.1466 35.5724 3.48643e-007 2.68556e-006 -1.76774e-006 -4.9591 50.6091 -0.0565637 1.14378e-006 -9.32379e-007 -3 8.03007 -4.95139 0.697619 -69.9386 -9.67832 6.09084 -109.507 16.8139 8.94588 -3.28173e-006 3.04554e-006 5.82133e-007 3.6408 -0.025804 1.99248 -2.88516e-006 -1.92231e-006 3.0116 -8.03006 -4.95139 -0.697628 -179.123 -0.00615029 2.33535 180 7.01551e-015 178.94 176.919 5.98576 179.967 -5.3233e-006 3.12947e-006 0.0697357 -18.5913 67.9479 19.4816 8.1365 25.2327 -3.48774 -176.956 1.68955 -1.59386 4.54188e-006 -4.6773e-006 -1.05945 -3.01179 -11.0285 -0.0171 -1.53662e-007 5.52734e-006 -0.18061 20.2929 69.9631 -21.3111 -8.13649 25.2327 3.48774 
53.473 84.3622 5.66986 -2.09619 -3.70091 -0.881403 0.566282 -2.05643 0.133116 1.13194 -0.109413 0.217175 1.12964 1.53548 0.198387 -8.2266 16.1863 2.70878 16.4927 -8.66673 2.33919 12.3276 -10.1928 -6.26349 57.9683 26.8641 35.2236 3.48643e-007 2.68556e-006 -1.76774e-006 -4.94717 50.433 -0.0696145 1.14378e-006 -9.32379e-007 -3 8.03007 -4.95139 0.697619 -69.9344 -9.67334 6.0883 -109.513 16.8329 8.95812 -3.28173e-006 3.04554e-006 5.82133e-007 3.6408 -0.025804 1.99248 -2.88516e-006 -1.92231e-006 3.0116 -8.03006 -4.95139 -0.697628 -179.11 -0.0664559 2.33607 180 7.01551e-015 178.94 176.903 5.84085 179.968 -5.3233e-006 3.12947e-006 0.0670366 -18.5407 67.8842 19.4282 8.1365 25.2327 -3.48774 -176.945 1.69357 -1.60045 4.54188e-006 -4.6773e-006 -1.05951 -3.01236 -11.0412 -0.0170005 -1.53662e-007 5.52734e-006 -0.180897 20.2996 69.97 -21.3183 -8.13649 25.2327 3.48774 
53.4648 84.3671 5.68453 -2.1105 -3.69827 -0.902991 0.568139 -2.05679 0.133021 1.13658 -0.110038 0.217092 1.13429 1.53485 0.198196 -8.2499 16.1968 2.7141 16.5247 -8.6621 2.33981 12.4657 -10.2112 -6.29091 58.3914 26.5841 34.8775 3.48643e-007 2.68556e-006 -1.76774e-006 -4.93491 50.2494 -0.0830859 1.14378e-006 -9.32379e-007 -3 8.03007 -4.95139 0.697619 -69.9305 -9.66824 6.0857 -109.518 16.8524 8.96994 -3.28173e-006 3.04554e-006 5.82133e-007 3.6408 -0.025804 1.99248 -2.88516e-006 -1.92231e-006 3.0116 -8.03006 -4.95139 -0.697628 -179.097 -0.122457 2.33611 180 7.01551e-015 178.939 176.888 5.70782 179.969 -5.3233e-006 3.12947e-006 0.0645632 -18.4946 67.8256 19.3794 8.1365 25.2327 -3.48774 -176.934 1.69702 -1.60711 4.54188e-006 -4.6773e-006 -1.05956 -3.01291 -11.0542 -0.0169099 -1.53662e-007 5.52734e-006 -0.181198 20.3065 69.9771 -21.3257 -8.13649 25.2327 3.48774 
53.4668 84.3663 5.68796 -2.12461 -3.6964 -0.923677 0.569945 -2.05694 0.132923 1.141 -0.11027 0.216921 1.13871 1.53462 0.197912 -8.2732 16.207 2.71927 16.5559 -8.65921 2.34038 12.6095 -10.2301 -6.31873 58.8102 26.307 34.5344 3.48643e-007 2.68556e-006 -1.76774e-006 -4.9223 50.0579 -0.0970135 1.14378e-006 -9.32379e-007 -3 8.03007 -4.95139 0.697619 -69.927 -9.66292 6.08299 -109.522 16.8723 8.98115 -3.28173e-006 3.04554e-006 5.82133e-007 3.6408 -0.025804 1.99248 -2.88516e-006 -1.92231e-006 3.0116 -8.03006 -4.95139 -0.697628 -179.084 -0.172961 2.33543 180 7.01551e-015 178.939 176.876 5.58981 179.97 -5.3233e-006 3.12947e-006 0.0623727 -18.4537 67.7734 19.3363 8.1365 25.2327 -3.48774 -176.923 1.69974 -1.61371 4.54188e-006 -4.6773e-006 -1.05962 -3.0134 -11.0673 -0.0168265 -1.53662e-007 5.52734e-006 -0.181513 20.3136 69.9843 -21.3332 -8.13649 25.2327 3.48774 
53.4716 84.3666 5.69674 -2.1384 -3.69543 -0.943333 0.571684 -2.05685 0.132819 1.14512 -0.110055 0.216645 1.14283 1.53483 0.197518 -8.2962 16.2173 2.72425 16.5856 -8.65846 2.34095 12.7596 -10.2494 -6.3468 59.2243 26.033 34.1949 3.48643e-007 2.68556e-006 -1.76774e-006 -4.90931 49.8576 -0.111431 1.14378e-006 -9.32379e-007 -3 8.03007 -4.95139 0.697619 -69.924 -9.65729 6.08013 -109.526 16.8928 8.99155 -3.28173e-006 3.04554e-006 5.82133e-007 3.6408 -0.025804 1.99248 -2.88516e-006 -1.92231e-006 3.0116 -8.03006 -4.95139 -0.697628 -179.071 -0.216776 2.33399 180 7.01551e-015 178.939 176.866 5.48993 179.97 -5.3233e-006 3.12947e-006 0.0605222 -18.4192 67.7291 19.2997 8.1365 25.2327 -3.48774 -176.912 1.70153 -1.62014 4.54188e-006 -4.6773e-006 -1.05967 -3.01379 -11.0805 -0.0167485 -1.53662e-007 5.52734e-006 -0.181845 20.3209 69.9917 -21.341 -8.13649 25.2327 3.48774 
53.4956 84.3623 5.66166 -2.15174 -3.69549 -0.961831 0.573336 -2.0565 0.132709 1.14886 -0.109336 0.216247 1.14658 1.53555 0.196998 -8.31856 16.2278 2.72905 16.6134 -8.66028 2.34159 12.9167 -10.2689 -6.37496 59.6332 25.7624 33.8595 3.48643e-007 2.68556e-006 -1.76774e-006 -4.89594 49.648 -0.126371 1.14378e-006 -9.32379e-007 -3 8.03007 -4.95139 0.697619 -69.9214 -9.65125 6.07705 -109.528 16.9139 9.00094 -3.28173e-006 3.04554e-006 5.82133e-007 3.6408 -0.025804 1.99248 -2.88516e-006 -1.92231e-006 3.0116 -8.03006 -4.95139 -0.697628 -179.06 -0.252712 2.33174 180 7.01551e-015 178.939 176.859 5.41127 179.971 -5.3233e-006 3.12947e-006 0.059069 -18.3919 67.6939 19.2709 8.1365 25.2327 -3.48774 -176.902 1.70224 -1.62628 4.54188e-006 -4.6773e-006 -1.05973 -3.01404 -11.0937 -0.0166741 -1.53662e-007 5.52734e-006 -0.182196 20.3283 69.9992 -21.3489 -8.13649 25.2327 3.48774 
